<svg width="72" height="72" viewBox="0 0 72 72" fill="none" xmlns="http://www.w3.org/2000/svg">
<path d="M46.792 43.9018C46.792 42.0876 48.2188 40.6765 49.9051 40.6765C51.6562 40.6765 53.0182 42.1548 53.0182 43.9018C53.0182 45.6488 51.5913 47.1271 49.9051 47.1271C48.2188 47.1271 46.792 45.716 46.792 43.9018Z" fill="#86BC25"/>
<path d="M46.1695 35.2555C46.1695 38.8895 45.222 41.615 43.1917 43.5618C41.1615 45.5086 38.3191 46.482 34.6646 46.482H27.491V24.8726H35.0706C38.6575 24.8726 41.3645 25.7162 43.2594 27.5332C45.222 29.2853 46.1695 31.881 46.1695 35.2555ZM39.9433 35.4502C39.9433 33.4385 39.5372 32.0108 38.7251 31.0374C37.9807 30.1289 36.6949 29.6098 35.0706 29.6098H33.4464V41.6799H34.7999C36.6272 41.6799 37.913 41.1608 38.7928 40.1225C39.5372 39.0842 39.9433 37.5268 39.9433 35.4502Z" fill="white"/>
<circle cx="36" cy="36" r="33.7831" stroke="url(#paint0_radial_1099_4792)" stroke-width="4.43376"/>
<defs>
<radialGradient id="paint0_radial_1099_4792" cx="0" cy="0" r="1" gradientUnits="userSpaceOnUse" gradientTransform="translate(-7.3624) scale(99.3925 414.694)">
<stop stop-color="#33FFFF"/>
<stop offset="0.9999" stop-color="#FB429B"/>
<stop offset="1" stop-color="#C43AFF"/>
</radialGradient>
</defs>
</svg>
