<svg width="110" height="110" viewBox="0 0 110 110" fill="none" xmlns="http://www.w3.org/2000/svg">
<path d="M71.4878 67.0724C71.4878 64.3007 73.6677 62.1449 76.2439 62.1449C78.9192 62.1449 81 64.4034 81 67.0724C81 69.7415 78.8201 72 76.2439 72C73.6677 72 71.4878 69.8442 71.4878 67.0724Z" fill="#86BC25"/>
<path d="M70.5366 53.8628C70.5366 59.4148 69.0891 63.5788 65.9873 66.5531C62.8855 69.5273 58.5429 71.0145 52.9597 71.0145H42V38H53.5801C59.0599 38 63.1957 39.2889 66.0907 42.0648C69.0891 44.7417 70.5366 48.7074 70.5366 53.8628ZM61.0244 54.1602C61.0244 51.0868 60.404 48.9057 59.1633 47.4185C58.026 46.0306 56.0615 45.2374 53.5801 45.2374H51.0986V63.6779H53.1665C55.9581 63.6779 57.9226 62.8848 59.2667 61.2985C60.404 59.7122 61.0244 57.3328 61.0244 54.1602Z" fill="white"/>
<circle cx="55" cy="55" r="52.5" stroke="url(#paint0_radial_1107_4463)" stroke-width="5"/>
<defs>
<radialGradient id="paint0_radial_1107_4463" cx="0" cy="0" r="1" gradientUnits="userSpaceOnUse" gradientTransform="translate(-11.2481) scale(151.85 633.56)">
<stop stop-color="#33FFFF"/>
<stop offset="0.9999" stop-color="#FB429B"/>
<stop offset="1" stop-color="#C43AFF"/>
</radialGradient>
</defs>
</svg>
