<svg width="110" height="110" viewBox="0 0 110 110" fill="none" xmlns="http://www.w3.org/2000/svg">
<path d="M56.601 72.101C56.981 72.101 57.3525 72.2153 57.6685 72.4295C57.9845 72.6437 58.2308 72.9482 58.3762 73.3045C58.5216 73.6607 58.5597 74.0527 58.4856 74.4308C58.4114 74.809 58.2284 75.1564 57.9597 75.429C57.691 75.7016 57.3486 75.8873 56.9759 75.9625C56.6031 76.0378 56.2168 75.9992 55.8657 75.8516C55.5146 75.7041 55.2145 75.4542 55.0034 75.1336C54.7922 74.813 54.6795 74.4361 54.6795 74.0505C54.6795 73.5335 54.882 73.0376 55.2423 72.672C55.6027 72.3064 56.0914 72.101 56.601 72.101V72.101ZM62.4423 55.9025C64.6827 53.4344 67 50.8806 67 46.4455C67 38.8365 59.977 36 55.548 36C51.0845 36 44 39.0081 44 47.0849H45.9215C45.9215 39.628 53.0501 37.9495 55.548 37.9495C58.1997 37.9495 65.0785 39.476 65.0785 46.4455C65.0785 50.1203 63.2032 52.1887 61.0281 54.5827C58.4648 57.4075 55.5576 60.6086 55.5576 66.9426H57.4791C57.4791 61.3689 60.002 58.5909 62.4403 55.9025H62.4423Z" fill="url(#paint0_linear_1107_4462)"/>
<circle cx="55" cy="55" r="52.5" stroke="url(#paint1_radial_1107_4462)" stroke-width="5"/>
<defs>
<linearGradient id="paint0_linear_1107_4462" x1="67" y1="44.4445" x2="37.4451" y2="50.8573" gradientUnits="userSpaceOnUse">
<stop stop-color="white"/>
<stop offset="1" stop-color="white"/>
</linearGradient>
<radialGradient id="paint1_radial_1107_4462" cx="0" cy="0" r="1" gradientUnits="userSpaceOnUse" gradientTransform="translate(-11.2481) scale(151.85 633.56)">
<stop stop-color="#33FFFF"/>
<stop offset="0.9999" stop-color="#FB429B"/>
<stop offset="1" stop-color="#C43AFF"/>
</radialGradient>
</defs>
</svg>
