<svg width="110" height="110" viewBox="0 0 110 110" fill="none" xmlns="http://www.w3.org/2000/svg">
<path d="M63.4394 47.9352C62.7427 46.2342 61.5699 44.7817 60.0684 43.7601C58.5668 42.7386 56.8035 42.1935 55 42.1935C53.1965 42.1935 51.4332 42.7386 49.9316 43.7601C48.4301 44.7817 47.2573 46.2342 46.5606 47.9352C45.0614 48.6456 43.791 49.7776 42.8977 51.1989C42.0045 52.6203 41.5253 54.2722 41.5162 55.9617C41.5041 60.7382 45.2964 64.7269 49.9556 64.85C51.3694 64.8877 52.7706 64.5707 54.0369 63.9267V68.7893C54.0369 69.0505 54.1383 69.301 54.319 69.4857C54.4996 69.6704 54.7446 69.7742 55 69.7742C55.2554 69.7742 55.5004 69.6704 55.681 69.4857C55.8617 69.301 55.9631 69.0505 55.9631 68.7893V63.9267C57.1605 64.534 58.479 64.85 59.8157 64.85H60.0444C64.7036 64.7269 68.4959 60.7382 68.4838 55.9617C68.4747 54.2722 67.9955 52.6203 67.1023 51.1989C66.209 49.7776 64.9386 48.6456 63.4394 47.9352ZM59.9962 62.8803C58.6026 62.9172 57.2319 62.513 56.0715 61.7231L55.9631 61.6492V56.5896L61.2122 53.9182C61.4421 53.8006 61.6169 53.5945 61.6982 53.3452C61.7795 53.0959 61.7606 52.8237 61.6456 52.5886C61.5307 52.3536 61.3291 52.1748 61.0853 52.0917C60.8414 52.0086 60.5753 52.0279 60.3454 52.1455L55.9631 54.3983V51.0621C55.9631 50.8009 55.8617 50.5504 55.681 50.3657C55.5004 50.181 55.2554 50.0773 55 50.0773C54.7446 50.0773 54.4996 50.181 54.319 50.3657C54.1383 50.5504 54.0369 50.8009 54.0369 51.0621V57.3528L49.6546 55.1C49.5408 55.0418 49.4169 55.0071 49.2899 54.9979C49.163 54.9886 49.0355 55.0051 48.9147 55.0462C48.794 55.0874 48.6824 55.1524 48.5862 55.2377C48.4901 55.323 48.4113 55.4268 48.3544 55.5432C48.2975 55.6596 48.2635 55.7863 48.2545 55.9161C48.2455 56.0459 48.2616 56.1763 48.3018 56.2997C48.3421 56.4232 48.4057 56.5373 48.4891 56.6356C48.5725 56.734 48.674 56.8145 48.7878 56.8727L54.0369 59.5441V61.6492L53.9285 61.7231C52.7681 62.513 51.3974 62.9172 50.0038 62.8803C46.38 62.7818 43.4304 59.6795 43.4424 55.9617C43.4508 54.648 43.8243 53.3637 44.5191 52.2587C45.214 51.1536 46.2017 50.2733 47.3672 49.7203C47.8031 49.5125 48.1498 49.1492 48.3424 48.6985C48.8939 47.3587 49.8198 46.2151 51.0041 45.411C52.1884 44.6069 53.5784 44.1779 55 44.1779C56.4216 44.1779 57.8116 44.6069 58.9959 45.411C60.1802 46.2151 61.1061 47.3587 61.6576 48.6985C61.8502 49.1492 62.1969 49.5125 62.6328 49.7203C63.7983 50.2733 64.786 51.1536 65.4809 52.2587C66.1757 53.3637 66.5492 54.648 66.5576 55.9617C66.5696 59.6795 63.62 62.7818 59.9962 62.8803Z" fill="white"/>
<path fill-rule="evenodd" clip-rule="evenodd" d="M33 34.2097C33 33.5416 33.5296 33 34.1828 33H41.2796C41.9328 33 42.4624 33.5416 42.4624 34.2097C42.4624 34.8778 41.9328 35.4194 41.2796 35.4194H35.3656V41.4677C35.3656 42.1358 34.836 42.6774 34.1828 42.6774C33.5296 42.6774 33 42.1358 33 41.4677V34.2097Z" fill="white"/>
<path fill-rule="evenodd" clip-rule="evenodd" d="M75.8172 33C76.4703 33 77 33.5416 77 34.2097V41.4677C77 42.1358 76.4703 42.6774 75.8172 42.6774C75.1641 42.6774 74.6344 42.1358 74.6344 41.4677V35.4194H68.7204C68.0673 35.4194 67.5376 34.8778 67.5376 34.2097C67.5376 33.5416 68.0673 33 68.7204 33H75.8172Z" fill="white"/>
<path fill-rule="evenodd" clip-rule="evenodd" d="M34.1828 78C33.5296 78 33 77.4583 33 76.7903V69.5323C33 68.8643 33.5296 68.3226 34.1828 68.3226C34.836 68.3226 35.3656 68.8643 35.3656 69.5323V75.5806H41.2796C41.9328 75.5806 42.4624 76.1223 42.4624 76.7903C42.4624 77.4583 41.9328 78 41.2796 78H34.1828Z" fill="white"/>
<path fill-rule="evenodd" clip-rule="evenodd" d="M77 76.7903C77 77.4583 76.4703 78 75.8172 78H68.7204C68.0673 78 67.5376 77.4583 67.5376 76.7903C67.5376 76.1223 68.0673 75.5806 68.7204 75.5806H74.6344V69.5323C74.6344 68.8643 75.1641 68.3226 75.8172 68.3226C76.4703 68.3226 77 68.8643 77 69.5323V76.7903Z" fill="white"/>
<circle cx="55" cy="55" r="52.5" stroke="url(#paint0_radial_1107_4464)" stroke-width="5"/>
<defs>
<radialGradient id="paint0_radial_1107_4464" cx="0" cy="0" r="1" gradientUnits="userSpaceOnUse" gradientTransform="translate(-11.2481) scale(151.85 633.56)">
<stop stop-color="#33FFFF"/>
<stop offset="0.9999" stop-color="#FB429B"/>
<stop offset="1" stop-color="#C43AFF"/>
</radialGradient>
</defs>
</svg>
